<svg xmlns="http://www.w3.org/2000/svg" viewBox="0 0 1200 700" font-family="Consolas,DejaVu Sans Mono,Menlo,monospace"><defs><marker id="m405060" viewBox="0 0 10 10" refX="8" refY="5" markerWidth="7" markerHeight="7" orient="auto-start-reverse"><path d="M0 0 L10 5 L0 10 z" fill="#405060"/></marker><marker id="m6ea8fe" viewBox="0 0 10 10" refX="8" refY="5" markerWidth="7" markerHeight="7" orient="auto-start-reverse"><path d="M0 0 L10 5 L0 10 z" fill="#6ea8fe"/></marker></defs><rect x="0" y="0" width="1200" height="700" fill="#0b0e13"/><line x1="110" y1="540" x2="1090" y2="540" stroke="#405060" stroke-width="3" stroke-linecap="round" marker-end="url(#m405060)"/><line x1="600" y1="660" x2="600" y2="70" stroke="#405060" stroke-width="3" stroke-linecap="round" marker-end="url(#m405060)"/><text x="1094" y="548" font-size="24" fill="#9db2c8" text-anchor="start" font-family="Consolas,DejaVu Sans Mono,Menlo,monospace">Re z</text><text x="588" y="66" font-size="24" fill="#9db2c8" text-anchor="end" font-family="Consolas,DejaVu Sans Mono,Menlo,monospace">Im z</text><path d="M 200 540 A 400 400 0 0 1 1000 540" fill="none" stroke="#6ea8fe" stroke-width="4" stroke-linejoin="round" stroke-linecap="round"/><line x1="200" y1="540" x2="1000" y2="540" stroke="#6ea8fe" stroke-width="4" stroke-linecap="round"/><path d="M 996 510 A 400 400 0 0 1 918 448" fill="none" stroke="#6ea8fe" stroke-width="4" stroke-linecap="round" stroke-linejoin="round" marker-end="url(#m6ea8fe)"/><line x1="360" y1="540" x2="460" y2="540" stroke="#6ea8fe" stroke-width="4" stroke-linecap="round" marker-end="url(#m6ea8fe)"/><text x="1008" y="480" font-size="26" fill="#6ea8fe" text-anchor="start" font-family="Consolas,DejaVu Sans Mono,Menlo,monospace">C_R</text><text x="200" y="580" font-size="22" fill="#6b7c8f" text-anchor="middle" font-family="Consolas,DejaVu Sans Mono,Menlo,monospace">−R</text><text x="1000" y="580" font-size="22" fill="#6b7c8f" text-anchor="middle" font-family="Consolas,DejaVu Sans Mono,Menlo,monospace">R</text><text x="600" y="580" font-size="22" fill="#6b7c8f" text-anchor="middle" font-family="Consolas,DejaVu Sans Mono,Menlo,monospace">0</text><line x1="481" y1="301" x2="499" y2="319" stroke="#e5534b" stroke-width="4" stroke-linecap="round"/><line x1="481" y1="319" x2="499" y2="301" stroke="#e5534b" stroke-width="4" stroke-linecap="round"/><text x="490" y="288" font-size="22" fill="#e5534b" text-anchor="middle" font-family="Consolas,DejaVu Sans Mono,Menlo,monospace">z₁ = ia</text><line x1="751" y1="201" x2="769" y2="219" stroke="#e5534b" stroke-width="4" stroke-linecap="round"/><line x1="751" y1="219" x2="769" y2="201" stroke="#e5534b" stroke-width="4" stroke-linecap="round"/><text x="760" y="188" font-size="22" fill="#e5534b" text-anchor="middle" font-family="Consolas,DejaVu Sans Mono,Menlo,monospace">z₂ = ib</text><text x="300" y="94" font-size="22" fill="#6b7c8f" text-anchor="middle" font-family="Consolas,DejaVu Sans Mono,Menlo,monospace">upper half-plane residue contour</text></svg>